<svg width="98" height="98" viewBox="0 0 98 98" fill="none" xmlns="http://www.w3.org/2000/svg">
<path d="M49 22.2031C22.6625 22.2031 3.82812 49 3.82812 49C3.82812 49 22.6625 75.7969 49 75.7969C75.3375 75.7969 94.1719 49 94.1719 49C94.1719 49 75.3375 22.2031 49 22.2031Z" stroke="#202020" stroke-width="2" stroke-miterlimit="10" stroke-linecap="round" stroke-linejoin="round"/>
<path d="M49 63.5469C57.4569 63.5469 64.3125 56.6912 64.3125 48.2344C64.3125 39.7775 57.4569 32.9219 49 32.9219C40.5431 32.9219 33.6875 39.7775 33.6875 48.2344C33.6875 56.6912 40.5431 63.5469 49 63.5469Z" stroke="#202020" stroke-width="2" stroke-miterlimit="10" stroke-linecap="round" stroke-linejoin="round"/>
<path d="M43.6406 45.1719C43.1006 46.107 42.8175 47.1683 42.8199 48.2482C42.8223 49.328 43.1101 50.3881 43.6542 51.3208C44.1983 52.2536 44.9794 53.0259 45.9182 53.5595C46.857 54.0932 47.9202 54.3691 49 54.3594" stroke="#202020" stroke-width="2" stroke-miterlimit="10" stroke-linecap="round" stroke-linejoin="round"/>
</svg>
