<svg width="54" height="54" viewBox="0 0 54 54" fill="none" xmlns="http://www.w3.org/2000/svg">
<g clip-path="url(#clip0)">
<path d="M11.2769 29.8493C11.5545 29.8493 11.8264 29.7364 12.0226 29.5403C12.2187 29.3442 12.3315 29.0719 12.3315 28.7946C12.3315 28.5173 12.2187 28.245 12.0226 28.0489C11.8264 27.8528 11.5545 27.7399 11.2769 27.7399C10.9984 27.7399 10.7273 27.8528 10.5312 28.0489C10.3338 28.245 10.2222 28.5161 10.2222 28.7946C10.2222 29.0719 10.3338 29.3442 10.5312 29.5403C10.7273 29.7364 10.9984 29.8493 11.2769 29.8493Z" fill="black"/>
<path d="M21.5304 11.546C21.2984 11.314 20.9717 11.2032 20.6467 11.246C20.3212 11.2889 20.0345 11.4809 19.8709 11.7652L12.4721 24.6072C12.1812 25.1119 12.3546 25.7566 12.8593 26.0475C13.364 26.3383 14.0088 26.1645 14.2996 25.6602L17.9037 19.4046L34.346 35.847L13.7999 47.6846L6.06608 39.9508L10.05 33.0364C10.3409 32.5317 10.1674 31.8866 9.66272 31.5957C9.15763 31.3048 8.51287 31.4787 8.22201 31.9834L3.90439 39.4774L2.14768 41.2345C0.762586 42.6192 0 44.4604 0 46.419C0 48.3771 0.762586 50.2183 2.14768 51.6034C3.57686 53.0326 5.45428 53.7474 7.33171 53.7474C9.20954 53.7474 11.087 53.0326 12.5161 51.6034L13.6256 50.4939L15.4454 52.3132C16.5697 53.438 18.0471 53.9999 19.524 53.9999C21.0014 53.9999 22.4784 53.438 23.6031 52.3132C25.7854 50.131 25.8501 46.6204 23.7971 44.359L41.9855 33.8802C42.2698 33.7162 42.4614 33.4294 42.5046 33.1044C42.5475 32.7789 42.4366 32.4522 42.2047 32.2203L21.5304 11.546ZM3.63907 50.1116C2.65278 49.1249 2.10937 47.8135 2.10937 46.4185C2.10937 45.0236 2.65278 43.7122 3.63907 42.7259L4.74855 41.6164L12.1342 49.0021L11.0247 50.1116C8.98871 52.148 5.67511 52.148 3.63907 50.1116ZM22.1117 45.6469C23.5384 47.0736 23.5384 49.3947 22.1117 50.8214C20.685 52.2481 18.3635 52.2486 16.9368 50.8214L15.3444 49.2291L21.9107 45.4463L22.1117 45.6469ZM36.2375 34.7573C36.2296 34.749 36.2231 34.7408 36.2152 34.7326L18.9946 17.5119L21.0117 14.0105L39.7402 32.739L36.2375 34.7573Z" fill="black"/>
<path d="M26.7256 12.0214C26.8196 12.0473 26.9139 12.0597 27.0066 12.0597C27.4693 12.0597 27.894 11.7528 28.0226 11.2851L29.3183 6.58602L30.2176 7.48539C30.4776 7.74536 30.8542 7.85124 31.2118 7.76472C31.569 7.6782 31.8553 7.41206 31.9678 7.06187L33.7925 1.37727C33.9704 0.822732 33.6652 0.228646 33.1106 0.0506679C32.5561 -0.127311 31.962 0.177972 31.784 0.732507L30.4875 4.77204L29.5288 3.81335C29.2635 3.54803 28.877 3.4438 28.5137 3.53938C28.1507 3.63537 27.866 3.91676 27.7663 4.27889L25.989 10.724C25.8345 11.286 26.1641 11.8669 26.7256 12.0214V12.0214Z" fill="black"/>
<path d="M53.8637 17.3022C53.5831 16.7917 52.942 16.6055 52.4316 16.8857L44.9301 21.006C44.6393 21.1658 44.4407 21.453 44.3941 21.7817C44.3472 22.1101 44.4576 22.4417 44.6924 22.6762L46.756 24.7398L41.8015 25.9782C41.2362 26.1195 40.8926 26.6922 41.0339 27.2575C41.1538 27.7366 41.584 28.0563 42.0565 28.0563C42.141 28.0563 42.2275 28.046 42.3132 28.0246L49.0747 26.3342C49.4434 26.2423 49.7339 25.9589 49.8352 25.5926C49.9366 25.2264 49.8332 24.8341 49.5646 24.5655L47.1775 22.1785L53.4471 18.7347C53.9576 18.4541 54.1442 17.8131 53.8637 17.3022V17.3022Z" fill="black"/>
<path d="M48.6075 11.7498C48.8036 11.9472 49.0755 12.0592 49.3532 12.0592C49.6305 12.0592 49.9024 11.9472 50.0989 11.7498C50.295 11.5537 50.4079 11.2827 50.4079 11.0046C50.4079 10.7269 50.295 10.455 50.0989 10.2589C49.9024 10.0623 49.6305 9.94946 49.3532 9.94946C49.0755 9.94946 48.8036 10.0623 48.6075 10.2589C48.411 10.455 48.2981 10.7269 48.2981 11.0046C48.2981 11.2827 48.411 11.5537 48.6075 11.7498Z" fill="black"/>
<path d="M46.4499 12.4379C46.192 11.9155 45.5596 11.7013 45.0372 11.9592L41.0999 13.9025C40.795 14.0529 40.5816 14.3413 40.5264 14.6766C40.4712 15.0124 40.5808 15.354 40.821 15.5941L42.3107 17.0839L37.3504 19.5274C36.828 19.7849 36.6129 20.4173 36.8704 20.9397C37.0542 21.3125 37.4283 21.5284 37.8176 21.5284C37.9737 21.5284 38.1328 21.4938 38.2827 21.4201L44.5639 18.3256C44.8692 18.1752 45.083 17.8869 45.1386 17.5515C45.1938 17.2157 45.0842 16.8742 44.8436 16.6336L43.353 15.143L45.9708 13.8506C46.4932 13.5927 46.7074 12.9603 46.4499 12.4379Z" fill="black"/>
<path d="M33.2491 15.3548C33.4188 15.4566 33.6058 15.5052 33.7908 15.5052C34.1488 15.5052 34.4982 15.3227 34.696 14.9931L38.6012 8.48615L40.6504 10.5407C40.8737 10.7644 41.1852 10.8765 41.4999 10.846C41.8143 10.8151 42.0985 10.6454 42.2741 10.3825L48.1202 1.64139C48.444 1.15731 48.3142 0.502246 47.8301 0.178424C47.3456 -0.144986 46.6906 -0.0152101 46.3667 0.468875L41.2358 8.14049L39.1401 6.03853C38.9106 5.80823 38.5872 5.69658 38.265 5.73654C37.9424 5.7761 37.6561 5.9619 37.4888 6.24082L32.8873 13.9075C32.5874 14.4072 32.7493 15.0549 33.2491 15.3548V15.3548Z" fill="black"/>
</g>
<defs>
<clipPath id="clip0">
<rect width="54" height="54" fill="white"/>
</clipPath>
</defs>
</svg>
