<svg width="110" height="110" viewBox="0 0 110 110" fill="none" xmlns="http://www.w3.org/2000/svg">
<g clip-path="url(#clip0)">
<path d="M80.3613 99.8269C79.464 99.8269 78.7366 100.554 78.7366 101.452V106.751H20.2674V67.2182C20.2674 66.3209 19.5399 65.5935 18.6427 65.5935C17.7454 65.5935 17.0179 66.3209 17.0179 67.2182V108.375C17.0179 109.273 17.7454 110 18.6427 110H80.3613C81.2586 110 81.986 109.273 81.986 108.375V101.452C81.986 100.554 81.2586 99.8269 80.3613 99.8269Z" fill="black"/>
<path d="M25.7106 81.0894C25.7106 81.9866 26.438 82.7141 27.3353 82.7141H39.2733C40.1705 82.7141 40.898 81.9866 40.898 81.0894V75.1845C40.898 74.2872 40.1705 73.5598 39.2733 73.5598H27.3353C26.438 73.5598 25.7106 74.2872 25.7106 75.1845V81.0894ZM28.96 76.8092H37.6486V79.4646H28.96V76.8092Z" fill="black"/>
<path d="M27.3353 70.006H39.2733C40.1705 70.006 40.898 69.2785 40.898 68.3813V62.4764C40.898 61.5791 40.1705 60.8517 39.2733 60.8517H27.3353C26.438 60.8517 25.7106 61.5791 25.7106 62.4764V68.3813C25.7106 69.2785 26.438 70.006 27.3353 70.006ZM28.96 64.1011H37.6486V66.7566H28.96V64.1011Z" fill="black"/>
<path d="M25.7106 93.7975C25.7106 94.6947 26.438 95.4222 27.3353 95.4222H39.2733C40.1705 95.4222 40.898 94.6947 40.898 93.7975V87.8928C40.898 86.9955 40.1705 86.2681 39.2733 86.2681H27.3353C26.438 86.2681 25.7106 86.9955 25.7106 87.8928V93.7975ZM28.96 89.5175H37.6486V92.1727H28.96V89.5175Z" fill="black"/>
<path d="M48.2696 70.006H60.2076C61.1049 70.006 61.8323 69.2785 61.8323 68.3813V62.4764C61.8323 61.5791 61.1049 60.8517 60.2076 60.8517H48.2696C47.3723 60.8517 46.6449 61.5791 46.6449 62.4764V68.3813C46.6449 69.2785 47.3721 70.006 48.2696 70.006ZM49.8943 64.1011H58.5829V66.7566H49.8943V64.1011Z" fill="black"/>
<path d="M46.6449 81.0894C46.6449 81.9866 47.3723 82.7141 48.2696 82.7141H60.2076C61.1049 82.7141 61.8323 81.9866 61.8323 81.0894V75.1845C61.8323 74.2872 61.1049 73.5598 60.2076 73.5598H48.2696C47.3723 73.5598 46.6449 74.2872 46.6449 75.1845V81.0894ZM49.8943 76.8092H58.5829V79.4646H49.8943V76.8092Z" fill="black"/>
<path d="M46.6449 93.7975C46.6449 94.6947 47.3723 95.4222 48.2696 95.4222H60.2076C61.1049 95.4222 61.8323 94.6947 61.8323 93.7975V87.8928C61.8323 86.9955 61.1049 86.2681 60.2076 86.2681H48.2696C47.3723 86.2681 46.6449 86.9955 46.6449 87.8928V93.7975ZM49.8943 89.5175H58.5829V92.1727H49.8943V89.5175Z" fill="black"/>
<path d="M91.3574 59.6964H81.9858V48.9793C81.9858 48.0821 81.2584 47.3546 80.3611 47.3546H77.2891V39.3008C84.3481 37.5704 89.6022 31.1928 89.6022 23.608C89.6022 14.6978 82.3534 7.449 73.4433 7.449C71.9266 7.449 70.4601 7.66346 69.0671 8.05599C63.8303 2.85538 56.9099 0 49.5019 0C34.1799 0 21.7147 12.4653 21.7147 27.7872V47.3548H18.6427C17.7454 47.3548 17.0179 48.0823 17.0179 48.9795V60.7193C17.0179 61.6166 17.7454 62.344 18.6427 62.344C19.5399 62.344 20.2674 61.6166 20.2674 60.7193V50.6043H78.7366V59.6966H68.3802C67.4829 59.6966 66.7555 60.424 66.7555 61.3213V94.9529C66.7555 95.8502 67.4829 96.5777 68.3802 96.5777H91.3574C92.2546 96.5777 92.9821 95.8502 92.9821 94.9529V61.3211C92.9821 60.4238 92.2546 59.6964 91.3574 59.6964ZM74.0396 47.2535H70.7902V39.5454C71.6541 39.6888 72.5395 39.767 73.4435 39.767C73.6434 39.767 73.8414 39.7592 74.0396 39.7518V47.2535ZM86.353 23.608C86.353 30.7262 80.5619 36.5175 73.4435 36.5175C66.325 36.5175 60.5339 30.7264 60.5339 23.608C60.5339 16.4896 66.325 10.6984 73.4435 10.6984C80.5617 10.6984 86.353 16.4896 86.353 23.608ZM29.8383 37.7276C28.941 37.7276 28.2135 38.4551 28.2135 39.3524V47.2535H24.9641V27.7872C24.9641 14.257 35.9717 3.24943 49.5019 3.24943C55.5701 3.24943 61.2672 5.42027 65.7519 9.39996C64.7558 9.94131 63.8256 10.5873 62.9695 11.318C59.1702 8.20308 54.446 6.49886 49.5019 6.49886C37.7634 6.49886 28.2135 16.0487 28.2135 27.7872V32.8535C28.2135 33.7508 28.941 34.4782 29.8383 34.4782C30.7355 34.4782 31.463 33.7508 31.463 32.8535V27.7872C31.463 17.8405 39.5551 9.74829 49.5019 9.74829C53.6046 9.74829 57.5304 11.133 60.7152 13.6708C58.5687 16.414 57.2845 19.8627 57.2845 23.608C57.2845 30.4353 61.5428 36.2827 67.541 38.6457V47.3548H31.463V39.3526C31.463 38.4551 30.7355 37.7276 29.8383 37.7276ZM70.0049 93.328V90.7367H75.6644C76.5616 90.7367 77.2891 90.0093 77.2891 89.112C77.2891 88.2147 76.5616 87.4873 75.6644 87.4873H70.0049V83.805H75.6644C76.5616 83.805 77.2891 83.0776 77.2891 82.1803C77.2891 81.283 76.5616 80.5556 75.6644 80.5556H70.0049V76.8733H75.6644C76.5616 76.8733 77.2891 76.1459 77.2891 75.2486C77.2891 74.3513 76.5616 73.6239 75.6644 73.6239H70.0049V69.9416H75.6644C76.5616 69.9416 77.2891 69.2142 77.2891 68.3169C77.2891 67.4196 76.5616 66.6922 75.6644 66.6922H70.0049V62.9458H89.7327V66.6922H84.3505C83.4532 66.6922 82.7258 67.4196 82.7258 68.3169C82.7258 69.2142 83.4532 69.9416 84.3505 69.9416H89.7327V73.6239H84.3505C83.4532 73.6239 82.7258 74.3513 82.7258 75.2486C82.7258 76.1459 83.4532 76.8733 84.3505 76.8733H89.7327V80.5556H84.3505C83.4532 80.5556 82.7258 81.283 82.7258 82.1803C82.7258 83.0776 83.4532 83.805 84.3505 83.805H89.7327V87.4873H84.3505C83.4532 87.4873 82.7258 88.2147 82.7258 89.112C82.7258 90.0093 83.4532 90.7367 84.3505 90.7367H89.7327V93.328H70.0049Z" fill="black"/>
<path d="M72.7044 33.2363C72.9892 33.4436 73.3246 33.5471 73.6601 33.5471C73.9955 33.5471 74.331 33.4434 74.6159 33.2363C74.8845 33.0409 81.1932 28.3814 81.1932 22.3214C81.1932 20.9866 81.0402 19.6779 80.7389 18.4314C80.6048 17.8773 80.1902 17.4339 79.6462 17.2631L74.1467 15.5373C73.83 15.4378 73.4905 15.4378 73.1738 15.5373L67.674 17.2631C67.1298 17.4339 66.7152 17.8773 66.5813 18.4316C66.28 19.6786 66.1271 20.9872 66.1271 22.3216C66.1271 28.3814 72.4357 33.0409 72.7044 33.2363ZM69.5598 20.0769L73.6601 18.7904L77.7605 20.0769C77.8824 20.805 77.9437 21.5567 77.9437 22.3214C77.9437 25.541 75.1629 28.4683 73.6528 29.8203C71.9334 28.2809 69.3763 25.3404 69.3763 22.3214C69.3765 21.5569 69.438 20.8052 69.5598 20.0769Z" fill="black"/>
</g>
<defs>
<clipPath id="clip0">
<rect width="110" height="110" fill="white"/>
</clipPath>
</defs>
</svg>
