<svg width="79" height="79" viewBox="0 0 79 79" fill="none" xmlns="http://www.w3.org/2000/svg">
<g clip-path="url(#clip0)">
<path d="M38.7217 59.0602C38.0912 58.9294 35.1341 59.4387 32.3161 57.92C31.753 57.6165 31.0513 57.8271 30.748 58.3897C30.4448 58.9524 30.6551 59.6543 31.2176 59.9578C31.4577 60.0871 31.6984 60.2047 31.9396 60.3116C29.5782 61.3488 27.6705 63.221 26.556 65.9883C25.4986 63.3995 23.6864 61.4313 21.1701 60.3085C23.7364 59.1633 25.5218 57.1605 26.556 54.6291C26.7776 55.176 26.9797 55.5558 26.9874 55.5716C27.2778 56.1408 27.9752 56.3667 28.5446 56.0763C29.1139 55.7857 29.3398 55.0886 29.0493 54.5191C29.0459 54.5037 27.6447 51.9464 27.8103 48.5427C27.9049 47.9047 27.4577 47.2706 26.7759 47.1451C26.1553 47.0229 25.4678 47.4165 25.3079 48.1136C25.2252 48.4749 25.8239 54.725 21.2882 57.6248C18.3354 59.5085 14.9831 58.9231 14.3585 59.0647C13.0382 59.3653 13.0393 61.252 14.3585 61.5524C14.9754 61.6915 18.3934 61.1076 21.3471 63.0303C25.7335 65.8882 25.2494 71.9723 25.2787 72.2447C25.2787 73.6718 27.3181 73.9931 27.7682 72.6007C27.9205 72.1266 27.28 66.0925 31.6109 63.1269C34.4643 61.1716 38.0005 61.6432 38.6159 61.5739C40.024 61.4157 40.1499 59.3623 38.7217 59.0602Z" fill="black"/>
<path d="M77.7602 36.4801C75.6444 36.2451 60.5617 38.3637 53.97 24.5239C50.5048 17.2442 51.3935 10.6448 51.2047 9.81681C51.0346 9.07248 50.3309 8.62656 49.658 8.71251C48.8907 8.79938 48.3817 9.43477 48.3817 10.0745V13.0777C47.8587 23.402 43.1604 32.1908 33.2943 35.2843C27.5969 37.0715 22.6508 36.2996 21.7273 36.5015C20.2464 36.8376 20.2353 38.9646 21.7431 39.2995C23.0342 39.572 32.7484 37.9982 40.2922 44.2631C40.7841 44.6714 41.5137 44.6037 41.9222 44.1122C42.3304 43.6203 42.263 42.8908 41.7713 42.4822C39.1828 40.3326 36.0803 38.7964 32.5303 37.9039C41.8765 35.5498 47.6131 28.8783 49.8089 19.5332C51.9863 28.8211 57.6756 35.5517 67.1222 37.8941C57.7698 40.2343 51.9539 46.9002 49.7955 56.2197C48.9919 52.8039 47.6514 49.5345 45.6362 46.6794C45.2676 46.1571 44.5455 46.0326 44.0232 46.4011C43.5008 46.7697 43.3764 47.4918 43.7449 48.0141C44.4553 49.0204 45.0945 50.117 45.6457 51.2734C48.9151 58.1421 48.3374 65.1302 48.3847 65.8044C48.5068 67.5263 51.3162 67.613 51.2283 65.4839C51.0695 61.6462 51.3671 48.6456 61.868 42.4765C68.9538 38.3179 76.8362 39.5327 77.8883 39.296C79.4742 38.936 79.3026 36.6532 77.7602 36.4801Z" fill="black"/>
<path d="M25.3522 17.442C24.5686 17.2795 18.3902 18.3734 15.6301 12.8051C14.3327 10.1928 14.4228 7.28836 14.4405 6.92422C14.5334 6.29392 14.0958 5.65312 13.405 5.52706C12.7883 5.40501 12.0975 5.79631 11.9378 6.49759C11.8554 6.8571 12.4536 13.1072 7.91838 16.0071C5.06913 17.8247 1.74373 17.3552 1.11697 17.425C-0.291296 17.5852 -0.405167 19.6171 0.988597 19.9345C1.66164 20.0861 5.00726 19.479 7.97716 21.4124C11.1424 23.4744 11.8002 27.2615 11.909 29.3554C11.9239 30.5522 11.871 30.6913 11.965 30.983C12.1379 31.5182 12.6269 31.8776 13.1814 31.8776C13.8181 31.8779 14.3339 31.4071 14.436 30.8302C14.5067 30.4346 14.1978 27.4252 15.6636 24.5125C15.9509 23.9415 15.721 23.2457 15.1501 22.9583C14.5791 22.6707 13.8833 22.9009 13.5959 23.4718C13.4496 23.7626 13.3137 24.0643 13.1882 24.3754C12.1315 21.7849 10.3191 19.8151 7.80065 18.6909C10.3668 17.5452 12.152 15.5429 13.1862 13.0114C14.2199 15.5615 15.9907 17.5551 18.5678 18.6949C18.3152 18.8065 18.0626 18.9294 17.8119 19.0649C17.2495 19.369 17.0404 20.0712 17.3447 20.6337C17.6488 21.1959 18.3509 21.405 18.9134 21.101C21.6451 19.6232 24.6295 20.0251 25.2462 19.9564C26.6619 19.7941 26.7693 17.7418 25.3522 17.442Z" fill="black"/>
</g>
<defs>
<clipPath id="clip0">
<rect width="79" height="79" fill="white"/>
</clipPath>
</defs>
</svg>
