<svg width="83" height="83" viewBox="0 0 83 83" fill="none" xmlns="http://www.w3.org/2000/svg">
<path d="M41.4976 63.7992C29.2012 63.7992 19.1983 53.7963 19.1983 41.4999C19.1983 29.2012 29.2012 19.1983 41.4976 19.1983C53.7939 19.1983 63.7968 29.2036 63.7968 41.4999C63.7992 53.7963 53.7939 63.7992 41.4976 63.7992ZM41.4976 21.5799C30.5158 21.5799 21.5799 30.5158 21.5799 41.4999C21.5799 52.4817 30.5158 61.4176 41.4976 61.4176C52.4793 61.4176 61.4152 52.4817 61.4152 41.4999C61.4176 30.5158 52.4817 21.5799 41.4976 21.5799Z" fill="black"/>
<path d="M41.4976 11.8653C40.8403 11.8653 40.3068 11.3318 40.3068 10.6745V1.19082C40.3068 0.533486 40.8403 0 41.4976 0C42.155 0 42.6885 0.533486 42.6885 1.19082V10.6745C42.6885 11.3342 42.1574 11.8653 41.4976 11.8653Z" fill="black"/>
<path d="M41.4976 83C40.8403 83 40.3068 82.4665 40.3068 81.8092V72.3255C40.3068 71.6682 40.8403 71.1347 41.4976 71.1347C42.155 71.1347 42.6885 71.6682 42.6885 72.3255V81.8092C42.6885 82.4665 42.1574 83 41.4976 83Z" fill="black"/>
<path d="M10.6745 42.6908H1.19082C0.533486 42.6908 0 42.1574 0 41.5C0 40.8427 0.533486 40.3092 1.19082 40.3092H10.6721C11.3294 40.3092 11.8629 40.8427 11.8629 41.5C11.8629 42.1574 11.3318 42.6908 10.6745 42.6908Z" fill="black"/>
<path d="M81.8068 42.6908H72.3231C71.6658 42.6908 71.1323 42.1574 71.1323 41.5C71.1323 40.8427 71.6658 40.3092 72.3231 40.3092H81.8068C82.4641 40.3092 82.9976 40.8427 82.9976 41.5C82.9976 42.1574 82.4641 42.6908 81.8068 42.6908Z" fill="black"/>
<path d="M19.7057 20.8893C19.4008 20.8893 19.096 20.7726 18.8626 20.5416L12.1559 13.8397C11.6915 13.3753 11.6915 12.6203 12.1559 12.1559C12.6203 11.6915 13.3753 11.6915 13.8397 12.1559L20.5464 18.8578C21.0108 19.3222 21.0108 20.0772 20.5464 20.5416C20.3154 20.775 20.0105 20.8893 19.7057 20.8893Z" fill="black"/>
<path d="M70.0035 71.1943C69.6986 71.1943 69.3938 71.0776 69.1604 70.8465L62.4537 64.1375C61.9892 63.6731 61.9892 62.9181 62.4537 62.4537C62.9181 61.9892 63.6731 61.9892 64.1375 62.4537L70.8442 69.1627C71.3086 69.6272 71.3086 70.3821 70.8442 70.8465C70.6132 71.0776 70.3083 71.1943 70.0035 71.1943Z" fill="black"/>
<path d="M12.999 71.1943C12.6941 71.1943 12.3893 71.0776 12.1559 70.8465C11.6915 70.3821 11.6915 69.6272 12.1559 69.1627L18.8626 62.4537C19.327 61.9892 20.082 61.9892 20.5464 62.4537C21.0108 62.9181 21.0108 63.6731 20.5464 64.1375L13.8397 70.8465C13.6063 71.0776 13.3014 71.1943 12.999 71.1943Z" fill="black"/>
<path d="M63.2968 20.8893C62.9919 20.8893 62.6871 20.7726 62.4537 20.5416C61.9892 20.0772 61.9892 19.3222 62.4537 18.8578L69.1604 12.1559C69.6248 11.6915 70.3798 11.6915 70.8442 12.1559C71.3086 12.6203 71.3086 13.3753 70.8442 13.8397L64.1375 20.5416C63.9065 20.775 63.6016 20.8893 63.2968 20.8893Z" fill="black"/>
</svg>
