<svg width="25" height="25" viewBox="0 0 25 25" fill="none" xmlns="http://www.w3.org/2000/svg">
<circle cx="12.5" cy="12.5" r="9.5" fill="white"/>
<path fill-rule="evenodd" clip-rule="evenodd" d="M12.42 24.84C5.56064 24.84 0 19.2794 0 12.42C0 5.56064 5.56064 0 12.42 0C19.2794 0 24.84 5.56064 24.84 12.42C24.84 19.2794 19.2794 24.84 12.42 24.84ZM17.8064 6.23852L3.77535 11.6491C3.42913 11.7826 3.43215 12.2727 3.77936 12.4027L7.19822 13.6782L8.52155 17.9322C8.60624 18.2047 8.93949 18.3054 9.16074 18.1246L11.0665 16.5716C11.2662 16.409 11.5508 16.4008 11.7595 16.5523L15.1968 19.0468C15.4334 19.2188 15.7687 19.0892 15.8281 18.8033L18.346 6.6963C18.4108 6.38405 18.1039 6.12356 17.8064 6.23852ZM9.61616 14.1936C9.42233 14.374 9.29731 14.6153 9.26186 14.8773L9.07402 16.2688C9.04918 16.4546 8.78809 16.473 8.73676 16.2932L8.01436 13.7558C7.9316 13.4664 8.05217 13.1572 8.30827 12.9992L14.99 8.88563C15.1101 8.81194 15.2336 8.97422 15.1305 9.06984L9.61616 14.1936Z" fill="#2CA5E0"/>
</svg>
