<svg width="76" height="76" viewBox="0 0 76 76" fill="none" xmlns="http://www.w3.org/2000/svg">
<path d="M49.875 45.125H58.1875C62.2817 45.125 66.2083 43.4985 69.1034 40.6034C71.9985 37.7083 73.625 33.7817 73.625 29.6875C73.625 25.5932 71.9985 21.6666 69.1034 18.7715C66.2083 15.8764 62.2817 14.25 58.1875 14.25H57.5937C55.8047 10.2816 52.781 6.99781 48.9733 4.88824C45.1657 2.77867 40.7782 1.95635 36.4651 2.5439C32.1519 3.13144 28.1443 5.09739 25.0396 8.14856C21.935 11.1997 19.8998 15.1727 19.2375 19.475C17.4543 18.9827 15.5869 18.8748 13.7589 19.1584C11.9308 19.442 10.1839 20.1107 8.63371 21.1201C7.0835 22.1295 5.76537 23.4567 4.76658 25.0137C3.76778 26.5708 3.1111 28.3223 2.84001 30.1522C2.56891 31.9821 2.68957 33.8487 3.19402 35.6285C3.69847 37.4083 4.57519 39.0606 5.76615 40.4761C6.9571 41.8917 8.43514 43.0381 10.1024 43.8395C11.7697 44.6409 13.5882 45.0791 15.4375 45.125H29.45" stroke="#202020" stroke-width="2" stroke-miterlimit="10" stroke-linecap="round"/>
<path d="M7.12499 69.4688L3.79999 73.625L7.12499 69.4688ZM19 54.625L11.9937 63.4125L19 54.625ZM49.875 63.5312L41.8 73.625L49.875 63.5312ZM57 54.625L55.1 57L57 54.625ZM43.5812 29.6875L26.125 48.6875H35.0312L31.1125 65.3125L49.875 45.125H41.0875L43.5812 29.6875Z" stroke="#202020" stroke-width="2" stroke-miterlimit="10" stroke-linecap="round"/>
</svg>
