<svg width="169" height="72" viewBox="0 0 169 72" fill="none" xmlns="http://www.w3.org/2000/svg">
<path d="M166.86 71.9801C167.126 72.0572 167.403 71.9047 167.48 71.6395L168.736 67.3182C168.813 67.0531 168.66 66.7756 168.395 66.6986C168.13 66.6215 167.853 66.774 167.775 67.0392L166.659 70.8803L162.818 69.7642C162.553 69.6872 162.276 69.8397 162.199 70.1049C162.122 70.37 162.274 70.6475 162.539 70.7245L166.86 71.9801ZM0.570421 3.49501C20.4273 0.670188 52.5797 0.694339 84.448 9.95513C116.312 19.2145 147.845 37.6925 166.562 71.7409L167.438 71.2591C148.555 36.9074 116.755 18.3021 84.727 8.99486C52.7036 -0.311018 20.4061 -0.336864 0.429579 2.50498L0.570421 3.49501Z" fill="#C6C6C6"/>
</svg>
