<svg width="95" height="27" viewBox="0 0 95 27" fill="none" xmlns="http://www.w3.org/2000/svg">
<path d="M5.73543 11.6675C4.81314 11.2213 4.10166 10.6045 3.60098 9.80388C3.10031 9.00329 2.84998 8.08459 2.84998 7.06089C2.84998 5.69596 3.16619 4.4754 3.81179 3.3992C4.44422 2.33613 5.34016 1.49617 6.47326 0.892455C7.59318 0.30186 8.88439 0 10.3205 0C11.4536 0 12.4681 0.209989 13.3509 0.616844C14.2337 1.0237 14.8793 1.61429 15.3141 2.36238L12.4418 4.60664C11.9148 3.68794 11.1242 3.22859 10.0702 3.22859C9.45094 3.22859 8.89756 3.38608 8.41007 3.68794C7.92257 3.9898 7.55366 4.40978 7.27697 4.961C7.00028 5.51222 6.86853 6.12907 6.86853 6.82466C6.86853 7.52025 7.09251 8.08459 7.54048 8.50457C7.98845 8.92455 8.58135 9.13454 9.30601 9.13454C10.3074 9.13454 11.1901 8.67519 11.9411 7.76961L14.2864 10.0139C13.6012 10.8538 12.8107 11.4575 11.9411 11.8119C11.0715 12.1663 10.057 12.35 8.91074 12.35C7.71176 12.3369 6.64454 12.1138 5.73543 11.6675Z" fill="white"/>
<path d="M18.0151 11.6675C17.106 11.2213 16.4077 10.6045 15.9202 9.80388C15.4327 9.00329 15.1823 8.08459 15.1823 7.06089C15.1823 5.69596 15.4985 4.46227 16.1441 3.3992C16.7766 2.32301 17.6725 1.49617 18.8056 0.892455C19.9255 0.30186 21.2036 0 22.6397 0C23.8519 0 24.9059 0.223114 25.815 0.669341C26.7241 1.11557 27.4224 1.73241 27.9099 2.533C28.3974 3.33358 28.6478 4.25228 28.6478 5.27598C28.6478 6.64091 28.3316 7.8746 27.686 8.93767C27.0535 10.0139 26.1576 10.8407 25.0245 11.4444C23.8914 12.035 22.6134 12.3369 21.1772 12.3369C19.9782 12.3369 18.9242 12.1138 18.0151 11.6675ZM23.1667 8.62269C23.641 8.29458 23.9968 7.86148 24.2471 7.31025C24.4975 6.75903 24.616 6.15531 24.616 5.51222C24.616 4.81663 24.4052 4.26541 23.9968 3.84543C23.5883 3.42545 23.0218 3.21546 22.2971 3.21546C21.6647 3.21546 21.1113 3.37295 20.6502 3.70106C20.1759 4.02917 19.8201 4.46227 19.5698 5.0135C19.3195 5.56472 19.2009 6.16844 19.2009 6.81153C19.2009 7.50712 19.4117 8.05834 19.8201 8.47832C20.2286 8.8983 20.7951 9.10829 21.5198 9.10829C22.1522 9.12141 22.7056 8.9508 23.1667 8.62269Z" fill="white"/>
<path d="M45.4071 0.275611L43.075 12.0744H39.4385L40.4926 6.69341L37.1592 11.0113H35.3936L33.5622 6.75903L32.495 12.0613H28.8586L31.2302 0.262487H34.4845L37.0538 6.53592L42.0078 0.275611H45.4071Z" fill="white"/>
<path d="M50.7564 3.26796L50.3479 5.28911H55.2888L54.6827 8.29458H49.755L48.9908 12.0613H44.9986L47.3703 0.262487H57.0016L56.3955 3.26796H50.7564Z" fill="white"/>
<path d="M59.3073 11.6675C58.3982 11.2213 57.6999 10.6045 57.2124 9.80388C56.7249 9.00329 56.4746 8.08459 56.4746 7.06089C56.4746 5.69596 56.7908 4.46227 57.4364 3.3992C58.0688 2.32301 58.9648 1.49617 60.0979 0.892455C61.231 0.30186 62.509 0 63.9451 0C65.1573 0 66.2113 0.223114 67.1204 0.669341C68.0296 1.11557 68.7279 1.73241 69.2154 2.533C69.7029 3.33358 69.9532 4.25228 69.9532 5.27598C69.9532 6.64091 69.637 7.8746 68.9914 8.93767C68.3589 10.0139 67.463 10.8407 66.3299 11.4444C65.1968 12.035 63.9188 12.3369 62.4826 12.3369C61.2705 12.3369 60.2164 12.1138 59.3073 11.6675ZM64.4721 8.62269C64.9465 8.29458 65.3022 7.86148 65.5526 7.31025C65.8029 6.75903 65.9215 6.15531 65.9215 5.51222C65.9215 4.81663 65.7107 4.26541 65.3022 3.84543C64.8938 3.42545 64.3272 3.21546 63.6026 3.21546C62.9701 3.21546 62.4168 3.37295 61.9556 3.70106C61.4813 4.02917 61.1256 4.46227 60.8752 5.0135C60.6249 5.56472 60.5063 6.16844 60.5063 6.81153C60.5063 7.50712 60.7171 8.05834 61.1256 8.47832C61.534 8.8983 62.1005 9.10829 62.8252 9.10829C63.4445 9.12141 63.9978 8.9508 64.4721 8.62269Z" fill="white"/>
<path d="M81.9298 6.89028C81.3764 7.67774 80.5859 8.25521 79.5714 8.63581L81.5477 12.0744H77.3974L75.7241 9.10829H74.7491L74.1562 12.0613H70.164L72.5356 0.262487H77.8454C79.4001 0.262487 80.6122 0.603719 81.4687 1.28618C82.3251 1.96865 82.7599 2.9136 82.7599 4.14729C82.7599 5.18411 82.4832 6.10282 81.9298 6.89028ZM77.2261 3.33358H75.8954L75.342 6.10282H76.989C77.5423 6.10282 77.964 5.97157 78.2802 5.69596C78.5832 5.42035 78.7413 5.03974 78.7413 4.54102C78.715 3.74044 78.2275 3.33358 77.2261 3.33358Z" fill="white"/>
<path d="M86.9102 3.35984H83.445L84.0774 0.275617H95L94.3675 3.35984H90.9024L89.1632 12.0744H85.171L86.9102 3.35984Z" fill="white"/>
<path d="M2.36158 15.2H6.33691L4.60508 23.6107H9.93176L9.30201 26.5873H0L2.36158 15.2Z" fill="white"/>
<path d="M12.7526 15.2H16.7279L14.3663 26.5873H10.391L12.7526 15.2Z" fill="white"/>
<path d="M30.2676 15.2L27.906 26.5873H24.6392L21.2542 21.2927L20.1653 26.6H16.2949L18.6565 15.2127H21.9102L25.2952 20.52L26.3841 15.2127H30.2676V15.2Z" fill="white"/>
<path d="M35.4893 18.1007L35.2138 19.4307H40.1994L39.6221 22.192H34.6365L34.3348 23.6867H40.2519L39.6483 26.5873H29.8478L32.2094 15.2H41.8L41.1965 18.1007H35.4893Z" fill="white"/>
<path d="M42.3916 18.1039H87.7229L88.35 15.2H43.0186L42.3916 18.1039Z" fill="url(#paint0_linear)"/>
<path d="M40.8761 22.1998H72.9869L73.5486 19.4354H41.4378L40.8761 22.1998Z" fill="url(#paint1_linear)"/>
<path d="M40.85 26.6H60.4195L61.0466 23.7088H41.464L40.85 26.6Z" fill="url(#paint2_linear)"/>
<defs>
<linearGradient id="paint0_linear" x1="40.5602" y1="31.0723" x2="71.3342" y2="12.4585" gradientUnits="userSpaceOnUse">
<stop stop-color="#FF4700"/>
<stop offset="1" stop-color="#FF9300"/>
</linearGradient>
<linearGradient id="paint1_linear" x1="40.5602" y1="31.0723" x2="71.3342" y2="12.4585" gradientUnits="userSpaceOnUse">
<stop stop-color="#FF4700"/>
<stop offset="1" stop-color="#FF9300"/>
</linearGradient>
<linearGradient id="paint2_linear" x1="40.5602" y1="31.0723" x2="71.3342" y2="12.4585" gradientUnits="userSpaceOnUse">
<stop stop-color="#FF4700"/>
<stop offset="1" stop-color="#FF9300"/>
</linearGradient>
</defs>
</svg>
