<svg width="110" height="23" viewBox="0 0 110 23" fill="none" xmlns="http://www.w3.org/2000/svg">
<path d="M10.104 3.742H3.992V17.464H0V0H14.096V17.464H10.104V3.742Z" fill="white"/>
<path d="M17.714 6.237H21.456V7.085C22.08 6.461 23.202 5.937 24.575 5.937C27.594 5.937 29.59 8.357 29.59 11.675C29.59 15.093 27.195 17.763 23.552 17.763C22.779 17.763 21.98 17.638 21.456 17.414V22.454H17.714V6.237ZM21.456 10.429V13.847C22.005 14.171 22.404 14.271 23.202 14.271C24.824 14.271 25.597 13.123 25.597 11.751C25.597 10.454 24.824 9.431 23.401 9.431C22.679 9.431 22.08 9.73 21.456 10.429Z" fill="white"/>
<path d="M37.324 5.938C41.166 5.938 43.561 8.483 43.561 11.851C43.561 15.219 41.166 17.764 37.324 17.764C33.482 17.764 31.087 15.219 31.087 11.851C31.087 8.483 33.481 5.938 37.324 5.938ZM37.324 14.271C38.596 14.271 39.569 13.373 39.569 11.851C39.569 10.404 38.571 9.431 37.324 9.431C36.126 9.431 35.079 10.329 35.079 11.851C35.078 13.273 36.051 14.271 37.324 14.271Z" fill="white"/>
<path d="M55.512 16.491C54.339 17.364 52.743 17.763 51.146 17.763C47.453 17.763 45.058 15.393 45.058 11.85C45.058 8.582 47.453 5.937 51.146 5.937C54.04 5.937 56.585 8.033 56.585 11.226C56.585 12.099 56.51 12.598 56.36 13.097H48.925C49.274 14.17 50.322 14.644 51.545 14.644C52.842 14.644 53.89 14.22 54.489 13.846L55.512 16.491ZM48.8 10.603H52.842C52.842 9.83 52.218 9.056 51.021 9.056C49.773 9.057 49.15 9.605 48.8 10.603Z" fill="white"/>
<path d="M58.456 6.237H62.198V11.426L65.242 6.237H69.932L66.289 11.576L70.48 17.464H65.64L62.197 12.225V17.464H58.455L58.456 6.237Z" fill="white"/>
<path d="M71.753 6.237H75.495V13.971H78.738V6.237H82.48V13.971H84.351V19.959H80.86V17.464H71.753V6.237Z" fill="white"/>
<path d="M85.974 17.464V6.237H89.716V12.1L93.708 6.237H97.45V17.464H93.708V11.601L89.716 17.464H85.974Z" fill="white"/>
<path d="M110 6.237V17.464H106.258V14.595H105.36L103.588 17.464H99.322L101.992 13.771C101.194 13.347 100.121 12.349 100.121 10.453C100.121 8.158 101.842 6.237 106.134 6.237H110ZM105.584 11.851H106.258V9.481H105.534C104.636 9.481 104.112 10.155 104.112 10.753C104.112 11.352 104.761 11.851 105.584 11.851Z" fill="white"/>
</svg>
